<?xml version="1.0" ?><svg height="32" id="icon" viewBox="0 0 32 32" width="32" xmlns="http://www.w3.org/2000/svg"><defs><style>.cls-1{fill:none;}</style></defs><title/><rect height="2" transform="translate(-2 52) rotate(-90)" width="2" x="24" y="26"/><rect height="2" transform="translate(-4 42) rotate(-90)" width="2" x="18" y="22"/><polygon points="18 30 22 30 22 28 20 28 20 26 18 26 18 30"/><rect height="2" transform="translate(2.9999 50.9999) rotate(-90)" width="4" x="24.9999" y="23"/><polygon points="28 26 30 26 30 30 26 30 26 28 28 28 28 26"/><polygon points="26 20 26 18 30 18 30 22 28 22 28 20 26 20"/><polygon points="24 20 22 20 22 24 20 24 20 26 24 26 24 20"/><rect height="4" transform="translate(1 39) rotate(-90)" width="2" x="19" y="17"/><rect height="4" width="4" x="6" y="22"/><path d="M14,30H2V18H14ZM4,28h8V20H4Z"/><rect height="4" width="4" x="22" y="6"/><path d="M30,14H18V2H30ZM20,12h8V4H20Z"/><rect height="4" width="4" x="6" y="6"/><path d="M14,14H2V2H14ZM4,12h8V4H4Z"/><rect class="cls-1" data-name="&lt;Transparent Rectangle&gt;" height="32" id="_Transparent_Rectangle_" width="32"/></svg>